<?xml version="1.0" encoding="utf-8"?>
<!-- Generator: Adobe Illustrator 25.0.1, SVG Export Plug-In . SVG Version: 6.00 Build 0)  -->
<svg version="1.0" id="Layer_1" xmlns="http://www.w3.org/2000/svg" xmlns:xlink="http://www.w3.org/1999/xlink" x="0px" y="0px"
	 viewBox="0 0 684.3 483.3" style="enable-background:new 0 0 684.3 483.3;" xml:space="preserve">
<style type="text/css">
	.st0{fill:#FFFFFF;}
	.st1{fill:#121718;}
	.st2{fill-rule:evenodd;clip-rule:evenodd;fill:#09A350;}
	.st3{fill-rule:evenodd;clip-rule:evenodd;fill:#121718;}
</style>
<g>
	<circle class="st0" cx="341.6" cy="241.7" r="203.6"/>
	<circle class="st0" cx="342.2" cy="241.7" r="204"/>
	<g>
		<path class="st1" d="M318.5,384.1c0,0.6-0.1,3.3-0.1,4.4v13.8c0,1.9,0.2,3.4,2.6,3.8v0.4h-8.3v-0.4c2.4-0.2,2.6-1.7,2.6-3.8V391
			c0-2-0.1-3-0.8-3c-0.4,0-1.4,0.4-2.2,0.7l-0.3-0.5c2.1-1,4.3-2.5,6.1-4.4L318.5,384.1z"/>
		<path class="st1" d="M326.2,406.5c5-1.1,7.2-6.6,8-10.1c-0.6,0.4-2.5,1.5-4.3,1.5c-3,0-6-3-6-6.9c0-3.7,2.7-7.2,7-7.2
			c4.9,0,7.1,4.5,7.1,8.3c0,5.6-3.9,13.8-11.9,14.9L326.2,406.5z M335.1,391.3c0-4.3-1.9-6.8-4.1-6.8c-2.2,0-3.8,2.5-3.8,6.1
			c0,3.4,1.7,6.1,4.3,6.1c1.1,0,2.1-0.5,3.1-1C334.7,394.6,335.1,393.1,335.1,391.3"/>
		<path class="st1" d="M343.1,406.5c5-1.1,7.2-6.6,8-10.1c-0.6,0.4-2.5,1.5-4.3,1.5c-3,0-6-3-6-6.9c0-3.7,2.7-7.2,7.1-7.2
			c4.9,0,7.1,4.5,7.1,8.3c0,5.6-3.9,13.8-11.9,14.9L343.1,406.5z M351.9,391.3c0-4.3-1.9-6.8-4.1-6.8c-2.2,0-3.8,2.5-3.8,6.1
			c0,3.4,1.7,6.1,4.3,6.1c1.1,0,2.1-0.5,3.1-1C351.6,394.6,351.9,393.1,351.9,391.3"/>
		<path class="st1" d="M357.7,389.2c1.2-3.1,3.6-5.4,7.2-5.4c3.3,0,6.2,2.3,6.2,5.7c0,2.4-1.4,4.2-1.9,4.8c-1.1,1.2-2.7,3-3.5,3.8
			l-5.8,5.7h6.4c3.4,0,4.7-0.6,5.6-1.4l0.4,0.3c-1.5,1.7-1.8,2.7-2.1,3.6h-13.6v-0.4c1.4-1.3,3-2.9,5.5-5.8c3.7-4.2,5.7-6.9,5.7-10
			c0-3-1.9-4.5-4.1-4.5c-2.4,0-4.3,1.6-5.6,3.6L357.7,389.2z"/>
		<path class="st2" d="M342.2,361.5c-66.2,0-119.8-53.7-119.8-119.8c0-66.2,53.6-119.8,119.8-119.8c66.2,0,119.8,53.6,119.8,119.8
			C462,307.8,408.4,361.5,342.2,361.5"/>
		<path class="st0" d="M298.9,250.6c-1.1,0.2-2.2,0.3-3.3,0.4l20.2,83V250c-1.1-0.2-1.9-1.1-1.9-2.2c0-1.3,1.1-2.4,2.5-2.4
			c1.4,0,2.5,1,2.5,2.4c0,1.1-0.8,2-1.9,2.2v83.9l20.2-83c-1.2-0.1-2.3-0.2-3.3-0.4c-7-1.5-12.2-7.7-12.2-15.2
			c0-8.6,7-15.6,15.6-15.6h5.2h5.2c8.6,0,15.6,7,15.6,15.6c0,7.5-5.2,13.7-12.2,15.2c-1.1,0.2-2.2,0.3-3.3,0.4l20.1,83V250
			c-1.1-0.2-1.9-1.1-1.9-2.2c0-1.3,1.1-2.4,2.5-2.4c1.4,0,2.4,1,2.4,2.4c0,1.1-0.8,2-1.9,2.2v83.9l20.2-83c-1.1-0.1-2.2-0.2-3.3-0.4
			c-7-1.5-12.3-7.7-12.3-15.2c0-8.6,7-15.6,15.6-15.6h20.7v-10.4v-17.1h5.2l2.2-3.6h-9.2c1.7-0.9,7.3-4.3,5.6-8.9
			c0,0-0.7-1.2-3.7-4.4c-3-3.2-2.7-6.2-2.6-6.6l0.2-0.9c0,0-2,0.1-3.6,1.1c-1.1,0.8-1.7,1.2-2,3c0,3.1,1.8,4.7,3,5.8
			c2,1.9,4.2,4,4.4,6.3c0.2,1.8-1.1,3.9-1.6,4.6h-0.9c0.9-0.7,2.6-3.2,1.4-5.7c-1.2-2.9-4.1-4.5-5.4-6.2c-1.3-1.7-1.5-3.8-1.5-3.8
			s-3.2,2.8-2.9,5.4c0.4,2.5,4.3,3.7,5.8,4.7c1.4,1,2.1,1.8,2.5,2.9c0.3,0.8,0,2.2-0.2,2.8h-1.1c0.2-0.4,0.6-1.1,0.6-1.7
			c0-0.8-0.2-1.6-1.5-2.6c-1-1.1-2.3-1.3-4.6-2.5c-1.7-0.7-2.4-3-2.2-3.3c0,0-1.4,1.5-1,3c0.4,1.5,1.8,2.1,4.6,3.3
			c2.3,1,3.5,3,3.9,3.6h-8.9v3.6h8c0.1,0.5,0.1,1.1,0.1,1.6c0,4.2-1.7,8.1-4.5,10.9c-2.8,2.8-6.6,4.6-10.9,4.6h0h0h-0.2
			c-8.6,0-15.6-7-15.6-15.5v-0.4c0-0.1,0-0.2,0-0.4c0-0.1,0-0.3,0-0.4v0l0-1.5c4.3-2,7.2-6.2,7.2-11.2c0-6.8-5.5-12.3-12.3-12.3
			c-6.8,0-12.3,5.5-12.3,12.3c0,4.9,2.9,9.1,7.1,11.1l0,1.6v0c0,0.1,0,0.2,0,0.4v0.4v0.4c0,8.6-7,15.5-15.6,15.5l-5.2,0l-5.2,0
			c-8.6,0-15.6-7-15.6-15.5v-0.4c0-0.1,0-0.2,0-0.4c0-0.1,0-0.3,0-0.4v0l0-1.6c4.2-2,7.1-6.2,7.1-11.1c0-6.8-5.5-12.3-12.3-12.3
			c-6.8,0-12.3,5.5-12.3,12.3c0,5,3,9.3,7.2,11.2l0,1.5v0c0,0.1,0,0.2,0,0.4v0.4c0,0.1,0,0.3,0,0.4c0,8.6-7,15.5-15.6,15.5h-0.2
			c-4.2-0.1-8.1-1.8-10.9-4.6c-2.8-2.8-4.5-6.7-4.5-10.9c0-0.5,0-1.1,0.1-1.6h8v-3.6h-8.8c0.4-0.7,1.6-2.6,3.9-3.6
			c2.8-1.2,4.2-1.9,4.6-3.3c0.4-1.5-1.1-3-1.1-3c0.1,0.2-0.5,2.6-2.2,3.3c-2.4,1.2-3.6,1.4-4.6,2.5c-1.3,1-1.4,1.8-1.5,2.6
			c0,0.6,0.4,1.3,0.6,1.7h-1.1c-0.2-0.6-0.5-2-0.2-2.8c0.4-1,1-1.9,2.5-2.9c1.4-1,5.4-2.2,5.8-4.7c0.4-2.6-2.9-5.4-2.9-5.4
			s-0.2,2.1-1.4,3.8c-1.3,1.7-4.2,3.3-5.4,6.2c-1.3,2.5,0.5,5,1.4,5.7h-0.9c-0.5-0.7-1.8-2.7-1.6-4.6c0.2-2.3,2.4-4.4,4.4-6.3
			c1.2-1.1,2.9-2.7,3-5.8c-0.3-1.8-0.9-2.2-2-3c-1.5-1-3.6-1.1-3.6-1.1l0.2,0.9c0.1,0.4,0.4,3.4-2.6,6.6c-3,3.2-3.6,4.4-3.6,4.4
			c-1.8,4.6,3.8,7.9,5.6,8.9h-9.2l2.2,3.6h5.2v17.1v10.4h20.7c8.6,0,15.6,7,15.6,15.6C311.1,242.8,305.9,249,298.9,250.6"/>
		<path class="st2" d="M342.2,51.7c-104.9,0-190,85-190,189.9c0,105,85.1,190,190,190c104.9,0,190-85,190-190
			C532.2,136.7,447.2,51.7,342.2,51.7 M342.2,425.2L342.2,425.2c-101.4,0-183.5-82.2-183.5-183.6c0-101.3,82.2-183.5,183.5-183.5
			c101.4,0,183.5,82.2,183.5,183.5C525.8,343,443.6,425.2,342.2,425.2"/>
		<polygon class="st1" points="240.8,321.8 211.1,341 207,334.6 220.4,325.9 200.6,324.7 195.8,317.4 216.2,319.3 225.3,297.8 
			230.2,305.5 221.1,325.5 236.7,315.5 		"/>
		<path class="st1" d="M196.4,264.1c2.4-0.7,4.9-0.9,7.3-0.7c2.4,0.3,4.7,1,6.8,2.3c2.2,1.3,4,2.9,5.6,4.9c1.5,2,2.7,4.1,3.3,6.5
			c0.6,2,0.8,4.1,0.7,6.3c-0.1,2.2-0.6,4.3-1.5,6.4c-1.1,2.6-2.7,4.8-4.7,6.7c-2,1.8-4.4,3.2-7.1,3.9c-2.4,0.7-4.9,0.9-7.3,0.6
			c-2.4-0.3-4.7-1-6.8-2.3c-2.1-1.2-4-2.9-5.6-4.9c-1.6-2-2.7-4.2-3.4-6.5c-0.7-2.4-0.9-4.9-0.6-7.3c0.3-2.5,1-4.8,2.2-7
			c1.2-2.2,2.7-4.1,4.6-5.6C191.9,265.9,194,264.8,196.4,264.1 M213,278.9L213,278.9c-0.9-3-2.7-5.3-5.5-6.7c-2.7-1.4-5.7-1.6-9-0.7
			c-3.2,0.9-5.6,2.7-7.2,5.4c-1.6,2.7-2,5.5-1.1,8.5c0.9,3,2.7,5.3,5.5,6.7c2.8,1.4,5.8,1.6,9,0.7c3.3-1,5.7-2.7,7.2-5.3
			C213.6,285,213.9,282.1,213,278.9"/>
		<path class="st1" d="M187.8,223c-1.4,1.5-2.4,3-3.1,4.6c-0.3,0.8-0.6,1.6-0.8,2.5c-0.2,0.8-0.3,1.7-0.3,2.7
			c-0.1,3.8,0.9,6.8,3.1,9.1c2.2,2.3,5.2,3.5,9,3.6c3.7,0.1,6.7-0.9,8.9-2.9c2.3-2,3.5-4.8,3.5-8.4c0.1-2-0.2-3.9-0.9-5.7
			c-0.6-1.8-1.6-3.4-2.9-5l7.7,0.3c0.9,1.6,1.6,3.3,2,5.1c0.4,1.8,0.6,3.7,0.6,5.6c-0.1,5.6-2,10.2-5.6,13.7
			c-3.6,3.5-8.1,5.2-13.5,5.1c-5.3-0.1-9.7-2-13.1-5.8c-3.4-3.7-5-8.4-4.9-14.1c0-1.9,0.3-3.8,0.7-5.5c0.2-0.9,0.5-1.8,0.8-2.6
			c0.4-0.9,0.7-1.8,1.2-2.6L187.8,223z"/>
		<path class="st1" d="M214.1,220.1l-29.6-23.5l2.6-8.2l37.8-2.3l-2.6,8.2l-8,0.5l-4.2,13.1l6.4,4.6L214.1,220.1z M208.1,194.5
			L208.1,194.5l-12.1,0.3l-1.8-0.1l-3-0.4c1.1,0.6,2,1.1,2.8,1.5l1.6,0.9l9.6,7L208.1,194.5z"/>
		<polygon class="st1" points="227.8,182.1 197.8,163.4 208.8,145.8 214.2,149.1 207.2,160.4 213.3,164.2 220.4,153 225.8,156.4 
			218.8,167.6 226.3,172.3 233.3,161.1 238.8,164.4 		"/>
		<polygon class="st1" points="244.3,157.8 219,133.1 224.3,127.7 245,147.9 253.4,139.3 258,143.8 		"/>
		<path class="st1" d="M238.4,104.9c-0.5-0.7-0.7-1.5-0.5-2.4c0.1-1,0.5-1.7,1.2-2.2c0.8-0.6,1.5-0.7,2.5-0.6
			c0.9,0.1,1.7,0.6,2.2,1.3c0.5,0.7,0.8,1.5,0.6,2.4c-0.1,0.9-0.6,1.6-1.3,2.2c-0.7,0.5-1.5,0.7-2.4,0.6
			C239.7,106,239,105.6,238.4,104.9 M263.3,140L263.3,140l-20.8-28.6l6.1-4.5l20.8,28.6L263.3,140z"/>
		<path class="st1" d="M311.7,79.8l6.1,21.2c1.3,4.6,1.1,8.3-0.6,11.3c-1.8,3-5.1,5.2-10,6.6c-4.9,1.4-8.9,1.3-12.1-0.2
			c-3.1-1.6-5.3-4.7-6.6-9.2l-6.1-21.1l7.2-2.1l5.8,20c0.8,2.8,2,4.7,3.7,5.8c1.7,1,3.7,1.2,6.1,0.5c2.5-0.7,4.1-2,5-3.7
			c0.9-1.8,0.9-4.1,0.1-6.9l-5.7-20L311.7,79.8z M287.6,78.7c0.2,0.9,0.7,1.5,1.5,1.9c0.8,0.4,1.5,0.5,2.4,0.2
			c0.9-0.2,1.5-0.7,1.9-1.4c0.4-0.8,0.5-1.6,0.2-2.4c-0.2-0.8-0.8-1.4-1.5-1.9c-0.8-0.4-1.5-0.5-2.3-0.3c-0.8,0.3-1.4,0.8-1.9,1.5
			C287.4,77.1,287.3,77.9,287.6,78.7 M296.2,76.2L296.2,76.2c-0.2-0.8-0.1-1.6,0.3-2.3c0.4-0.8,1.1-1.3,1.9-1.5
			c0.8-0.2,1.6-0.2,2.4,0.3c0.7,0.4,1.2,1,1.5,1.8c0.2,0.9,0.2,1.7-0.2,2.4c-0.4,0.7-1,1.2-1.9,1.5c-0.9,0.2-1.7,0.2-2.4-0.3
			C297,77.7,296.5,77.1,296.2,76.2"/>
		<path class="st1" d="M329.7,112.6l1.1-35.3l7.8,0.3l15,21c0.4,0.6,0.8,1.4,1.4,2.5c0.5,1,1,2.2,1.6,3.8c0-0.4-0.1-0.9-0.1-1.5
			c0-0.5-0.1-1.1-0.1-1.7c0-0.4,0-1,0-1.9v-1.9l0.6-19.8l7.2,0.2l-1.1,35.3l-7.4-0.2l-15.4-21.4c-0.4-0.6-0.9-1.4-1.4-2.5
			c-0.5-1.1-1-2.3-1.6-3.8c0.1,0.9,0.2,2,0.3,3.1c0,0.4,0,1.1,0,2v1.9l-0.7,20.2L329.7,112.6z"/>
		<path class="st1" d="M371.9,116.4l9.2-34.1l7.3,2l-9.2,34.1L371.9,116.4z M383.6,75L383.6,75c0.2-0.8,0.7-1.5,1.5-1.9
			c0.8-0.5,1.6-0.6,2.4-0.4c0.9,0.2,1.5,0.7,2,1.6c0.4,0.8,0.6,1.7,0.3,2.5c-0.2,0.9-0.7,1.5-1.5,2c-0.7,0.5-1.6,0.6-2.5,0.4
			c-0.8-0.3-1.5-0.7-1.9-1.5C383.5,76.7,383.3,75.9,383.6,75"/>
		<path class="st1" d="M396.3,124.9l4-37.4l7.5,3.7l-3.6,22.8l-0.6,2.5l-1.1,4.1c0.9-1.3,1.7-2.4,2.4-3.3c0.4-0.5,0.7-0.9,1-1.2
			c0.3-0.4,0.6-0.7,1-1l15.9-16.4l7.4,3.7l-27.5,25.8L396.3,124.9z"/>
		<polygon class="st1" points="418.1,137.3 441.1,110.4 456.9,123.9 452.8,128.7 442.7,120.1 438,125.7 448,134.3 443.9,139.1 
			433.8,130.5 428.1,137.3 438.1,145.9 434,150.8 		"/>
		<path class="st1" d="M454.8,177.6l-5.1-7l7.9-17.3l-13.3,9.7l-4.5-6.1l28.6-20.8l6.4,8.7c2.6,3.5,3.8,6.6,3.7,9.3
			c-0.1,2.7-1.5,5-4.2,7c-2,1.4-4,2.1-6.3,1.9c-2.2-0.2-4.2-1.1-5.8-2.8L454.8,177.6z M460.6,151.1L460.6,151.1l0.7,0.9
			c1.8,2.5,3.3,3.9,4.4,4.3c1.1,0.4,2.4,0.1,3.7-0.8c1.4-1,2.1-2.2,2.1-3.5c0-1.3-0.9-3.1-2.6-5.5l-0.7-0.9L460.6,151.1z"/>
		<path class="st1" d="M460.3,178.9l6,2c-1,1-1.6,2.2-1.8,3.6c-0.2,1.4-0.1,2.7,0.5,4.1c0.7,1.7,1.6,2.8,2.8,3.4
			c1.2,0.7,2.4,0.7,3.7,0.1c1.5-0.6,2.4-2.9,2.6-6.7l0.2-2.9c0.3-3.4,0.9-6,1.9-7.7c1-1.7,2.4-3,4.4-3.8c2.7-1.1,5.3-1,7.9,0.4
			c2.6,1.4,4.6,3.8,6.1,7.2c0.5,1,0.7,2,0.9,2.9c0.2,0.9,0.2,1.8,0.2,2.7c-0.1,1.7-0.6,3.4-1.6,5.2l-5.7-2.5
			c0.7-0.9,1.2-1.8,1.3-2.8c0.1-1,0-2.1-0.5-3.2c-0.6-1.4-1.4-2.4-2.4-2.9c-1-0.6-2.1-0.6-3.2-0.1c-1.7,0.7-2.6,3.1-2.6,7v1.8
			c-0.1,3.2-0.7,5.9-1.7,7.9c-1,2-2.6,3.4-4.6,4.3c-3.1,1.3-5.9,1.2-8.6,0c-2.7-1.3-4.8-3.7-6.3-7.3c-1-2.5-1.5-4.8-1.4-7
			C458.4,182.3,459.1,180.5,460.3,178.9"/>
		<path class="st1" d="M467.1,210.2l34.5-7.7l1.6,7.4l-34.5,7.7L467.1,210.2z M509.3,201.4L509.3,201.4c0.8-0.2,1.6,0,2.5,0.5
			c0.8,0.5,1.3,1.2,1.5,2c0.2,0.9,0,1.7-0.5,2.5c-0.5,0.8-1.2,1.3-2.1,1.5c-0.9,0.2-1.7,0.1-2.5-0.4c-0.8-0.5-1.3-1.2-1.5-2.1
			c-0.2-0.8,0-1.7,0.5-2.4C507.7,202.1,508.4,201.6,509.3,201.4"/>
		<polygon class="st1" points="499.9,239 471,240.2 470.7,232.6 499.6,231.4 499.3,222.8 505.7,222.5 506.7,247.4 500.3,247.6 		"/>
		<polygon class="st1" points="470.7,254.9 505.5,261.3 501.7,281.8 495.5,280.6 497.9,267.6 490.7,266.3 488.3,279.3 482,278.2 
			484.4,265.1 475.7,263.5 473.3,276.6 466.9,275.4 		"/>
		<path class="st1" d="M469.4,283.1l2.7,5.7c-1.4,0-2.6,0.4-3.8,1.2c-1.1,0.7-2,1.8-2.6,3.2c-0.7,1.6-0.8,3.1-0.5,4.4
			c0.4,1.2,1.2,2.1,2.5,2.7c1.5,0.6,3.7-0.3,6.6-2.8l2.2-1.9c2.6-2.2,4.9-3.6,6.8-4.1c1.9-0.5,3.8-0.3,5.8,0.5
			c2.7,1.1,4.5,3.1,5.3,6c0.8,2.9,0.5,6-0.9,9.4c-0.4,1-0.9,1.9-1.4,2.6c-0.5,0.8-1.1,1.5-1.8,2c-1.2,1.1-2.9,2-4.8,2.4l-2.2-5.8
			c1.1-0.1,2.1-0.5,2.9-1.1c0.8-0.6,1.5-1.5,2-2.6c0.6-1.4,0.7-2.7,0.4-3.8c-0.3-1.1-1.1-1.9-2.2-2.4c-1.7-0.7-4,0.3-6.8,3.1
			l-1.3,1.2c-2.4,2.2-4.6,3.7-6.8,4.3c-2.2,0.7-4.3,0.6-6.3-0.2c-3-1.3-5-3.3-6-6.2c-0.9-2.8-0.7-6,0.8-9.6c1-2.5,2.4-4.5,4-5.8
			C465.6,284.1,467.4,283.3,469.4,283.1"/>
		<path class="st1" d="M451.5,309.9l29.4,19.5l-4.2,6.3l-29.4-19.5L451.5,309.9z M487.1,334.1L487.1,334.1c0.7,0.5,1.2,1.2,1.4,2.1
			c0.2,0.9,0.1,1.8-0.4,2.5c-0.5,0.7-1.2,1.2-2.1,1.4c-0.9,0.2-1.7,0-2.5-0.5c-0.8-0.5-1.2-1.2-1.4-2.1c-0.2-0.9,0-1.7,0.5-2.5
			c0.5-0.8,1.2-1.2,2.1-1.4C485.5,333.5,486.3,333.6,487.1,334.1"/>
		<path class="st3" d="M342.2,37.6c-112.7,0-204,91.3-204,204c0,112.7,91.3,204.1,204,204.1c112.7,0,204-91.3,204-204.1
			C546.3,129,454.9,37.6,342.2,37.6 M342.2,438.8L342.2,438.8c-108.9,0-197.1-88.3-197.1-197.1c0-108.9,88.3-197.1,197.1-197.1
			c108.9,0,197.1,88.2,197.1,197.1C539.4,350.5,451.1,438.8,342.2,438.8"/>
	</g>
</g>
</svg>
