<svg xmlns="http://www.w3.org/2000/svg" id="Ebene_1" data-name="Ebene 1" viewBox="0 0 100 100"><defs><style>.cls-1{fill:#30c5ff;}.cls-2,.cls-3{fill:#fff;}.cls-3{fill-rule:evenodd;}</style></defs><rect class="cls-1" width="100" height="100"></rect><path class="cls-2" d="M66.58,72.81a9.57,9.57,0,0,0-6.93,3.12,1.46,1.46,0,0,1-2.12,0,9.54,9.54,0,0,0-6.89-3.12A9.6,9.6,0,1,0,50.46,92a9.56,9.56,0,0,0,7.06-3.11,1.46,1.46,0,0,1,2.14,0,9.59,9.59,0,0,0,16.65-7A9.67,9.67,0,0,0,66.58,72.81ZM50.46,89.08a6.67,6.67,0,1,1,6.66-6.67A6.68,6.68,0,0,1,50.46,89.08Zm16.26,0a6.67,6.67,0,1,1,6.67-6.67A6.68,6.68,0,0,1,66.72,89.08Z"></path><path class="cls-2" d="M17.62,72.86a9.6,9.6,0,1,0,9.6,9.6A9.62,9.62,0,0,0,17.62,72.86Zm0,16.27a6.67,6.67,0,1,1,6.67-6.67A6.67,6.67,0,0,1,17.62,89.13Z"></path><path class="cls-2" d="M91.81,90.71l-6.38-7.93a.55.55,0,0,1,0-.67l6.31-8a.52.52,0,0,0,.08-.54.5.5,0,0,0-.47-.26H89.58a1.84,1.84,0,0,0-1.25.6l-4.59,5.71a.54.54,0,0,1-.84,0l-4.76-5.91a1.16,1.16,0,0,0-.83-.4h-2a.48.48,0,0,0-.47.26.5.5,0,0,0,.09.54l6.3,8a.54.54,0,0,1,0,.68l-6.38,7.93a.47.47,0,0,0,.38.8h2.3a1.18,1.18,0,0,0,.83-.4l4.56-5.79a.55.55,0,0,1,.85,0l4.41,5.59a1.8,1.8,0,0,0,1.25.6h2a.47.47,0,0,0,.38-.8Z"></path><path class="cls-3" d="M33.19,84.39c0,.11.11.17.17.25L38.76,91c.18.2.33.42.21.69s-.39.28-.66.28c-.68,0-1.37,0-2.06,0a1.28,1.28,0,0,1-1-.47q-3-3.59-6.1-7.18a1,1,0,0,1-.22-.67c0-.54,0-1.06,0-1.57s.08-.61.57-.61c1.11,0,2.23,0,3.35,0a11.13,11.13,0,0,0,1.71-.3,2.48,2.48,0,0,0,1.63-3.3,2.27,2.27,0,0,0-1.82-1.58,5.46,5.46,0,0,0-1.21-.12H27.83a.79.79,0,0,1-.7-.3c-.58-.68-1-1.21-1.67-1.85-.14-.13-.31-.24-.22-.46a.48.48,0,0,1,.48-.29h.55c2.69,0,5.11-.09,7.8,0a5.44,5.44,0,0,1,3,10,7.27,7.27,0,0,1-3.62,1.1C33.37,84.35,33.28,84.32,33.19,84.39Z"></path></svg>